<svg xmlns="http://www.w3.org/2000/svg" viewBox="0 0 256 257">
  <defs>
    <linearGradient id="bg" x1="7.828" x2="235.458" y1="99.984" y2="140.12" gradientUnits="userSpaceOnUse">
      <stop stop-color="#41d1ff" />
      <stop offset="1" stop-color="#bd34fe" />
    </linearGradient>
    <linearGradient id="fg" x1="194.651" x2="236.076" y1="8.818" y2="292.989" gradientUnits="userSpaceOnUse">
      <stop stop-color="#ffea83" />
      <stop offset="0.083" stop-color="#ffdd35" />
      <stop offset="0.32" stop-color="#ffa800" />
      <stop offset="1" stop-color="#ff0f80" />
    </linearGradient>
  </defs>
  <path fill="url(#bg)" d="M255.153 37.938L134.897 252.976c-2.483 4.44-8.862 4.466-11.382.048L.875 37.958c-2.75-4.813 1.371-10.646 6.834-9.67l120.385 21.517a6.537 6.537 0 002.322-.002l117.861-21.483c5.438-.992 9.574 4.796 6.863 9.62z" />
  <path fill="url(#fg)" d="M185.432.063L96.44 17.501a3.268 3.268 0 00-2.634 3.014l-5.474 92.456a3.268 3.268 0 003.997 3.378l24.777-5.718c2.318-.535 4.413 1.507 3.936 3.838l-7.361 36.047c-.495 2.426 1.782 4.5 4.151 3.78l15.304-4.649c2.372-.72 4.652 1.36 4.15 3.788l-11.698 56.621c-.732 3.542 3.979 5.473 5.943 2.437l1.313-2.028 72.516-144.72c1.215-2.423-.88-5.186-3.54-4.672l-25.505 4.922c-2.396.462-4.435-1.77-3.759-4.114l16.646-58.084c.677-2.363-1.37-4.6-3.774-4.07z" />
</svg>